<?xml version="1.0" standalone="no"?>
<!DOCTYPE svg PUBLIC "-//W3C//DTD SVG 20010904//EN"
 "http://www.w3.org/TR/2001/REC-SVG-20010904/DTD/svg10.dtd">
<svg version="1.0" xmlns="http://www.w3.org/2000/svg"
 width="1645.000000pt" height="448.000000pt" viewBox="0 0 1645.000000 448.000000"
 preserveAspectRatio="xMidYMid meet">

<g transform="translate(0.000000,448.000000) scale(0.100000,-0.100000)"
fill="#000000" stroke="none">
<path d="M7415 4125 c-135 -50 -200 -207 -149 -357 57 -169 295 -217 426 -87
127 127 90 359 -71 435 -48 23 -155 28 -206 9z"/>
<path d="M10777 4023 c-4 -3 -7 -494 -7 -1090 l0 -1083 225 0 225 0 0 459 c0
433 1 463 20 525 28 89 72 144 149 183 55 29 72 33 139 33 126 0 213 -55 264
-165 23 -50 23 -53 26 -542 l3 -493 219 0 220 0 0 546 c0 616 -1 626 -73 774
-98 200 -283 314 -512 314 -164 0 -292 -51 -397 -157 l-58 -59 0 381 0 381
-218 0 c-120 0 -222 -3 -225 -7z"/>
<path d="M14207 4023 c-4 -3 -7 -494 -7 -1090 l0 -1083 225 0 225 0 0 1090 0
1090 -218 0 c-120 0 -222 -3 -225 -7z"/>
<path d="M2515 3979 c-70 -34 -91 -35 -125 -9 -16 12 -41 20 -68 20 -37 0 -50
-6 -78 -34 -19 -19 -37 -48 -40 -65 -9 -42 -14 -44 -60 -21 -21 11 -47 20 -57
20 -34 0 -72 -28 -96 -69 l-23 -42 -49 51 c-72 72 -88 69 -151 -30 l-51 -80
-56 53 c-63 61 -112 90 -135 81 -23 -9 -94 -120 -102 -160 -7 -37 -16 -41 -54
-19 -14 8 -39 14 -56 15 -53 0 -59 -18 -56 -162 2 -98 -1 -135 -13 -157 -14
-28 -16 -29 -75 -24 -41 4 -69 2 -85 -7 -30 -16 -65 -85 -65 -128 0 -38 -3
-39 -55 -7 -44 27 -77 32 -93 13 -13 -17 -32 -155 -26 -189 5 -24 3 -26 -73
-42 -85 -18 -103 -29 -103 -62 0 -26 55 -112 81 -126 29 -15 23 -23 -31 -49
-81 -38 -77 -72 18 -142 31 -23 59 -44 62 -46 3 -2 -4 -8 -15 -15 -77 -42 -99
-121 -49 -168 34 -32 102 -30 203 5 86 30 90 28 91 -49 1 -27 5 -111 10 -185
5 -80 5 -182 -1 -250 -11 -138 -3 -204 26 -208 39 -5 44 9 51 163 10 203 10
271 0 399 l-8 109 38 -7 c22 -4 44 -12 49 -17 6 -7 9 -168 7 -458 -3 -485 -4
-477 50 -469 l23 3 8 335 c4 184 6 388 4 453 l-3 119 34 -6 c19 -3 35 -6 36
-8 1 -2 13 -77 25 -168 15 -104 27 -252 32 -400 4 -129 15 -293 23 -365 9 -71
16 -160 16 -196 l0 -67 -47 -20 c-83 -35 -154 -51 -278 -62 -186 -17 -250 -37
-328 -101 -40 -33 -47 -59 -21 -80 12 -10 34 -10 107 -2 105 13 114 12 256
-24 99 -26 107 -26 203 -14 55 7 102 10 105 8 2 -3 -30 -36 -71 -73 -58 -53
-76 -75 -76 -95 0 -46 17 -49 114 -24 107 29 240 45 378 45 81 0 112 5 146 20
60 27 144 117 193 205 22 41 43 75 45 75 3 0 45 -24 95 -54 60 -37 109 -58
147 -65 140 -27 171 -35 231 -62 35 -16 93 -51 130 -78 115 -84 167 -113 203
-109 32 3 33 5 36 51 4 66 -20 141 -68 216 -23 35 -40 64 -38 66 7 6 178 -16
232 -30 34 -9 108 -38 166 -65 58 -27 129 -54 159 -60 76 -14 254 -13 269 2
39 39 -16 93 -188 188 -52 29 -108 62 -125 75 -78 57 -192 101 -285 107 -35 3
-35 3 -42 63 -34 301 -40 433 -33 742 l8 315 31 -6 c17 -3 59 -6 93 -7 l61 -2
6 -131 c3 -72 9 -270 13 -440 7 -278 10 -310 25 -320 13 -8 23 -8 35 0 16 10
18 31 18 190 0 98 -2 298 -5 443 -4 228 -3 265 10 271 8 5 41 20 73 35 32 15
86 50 118 77 59 49 62 50 161 63 76 10 105 18 115 31 7 10 13 21 13 24 0 5
-86 144 -111 180 -9 13 -2 29 30 79 65 102 53 131 -55 131 l-58 0 48 49 c30
31 47 55 44 67 -4 25 -63 53 -138 67 -33 6 -60 15 -60 20 0 4 20 20 45 35 48
29 58 43 48 68 -7 18 -98 64 -128 64 -48 1 -46 17 7 51 72 46 72 69 -2 120
-30 20 -71 43 -93 50 -21 7 -40 16 -43 21 -3 4 7 30 23 58 39 70 29 85 -63 85
-38 0 -92 -4 -120 -8 l-51 -8 -6 63 c-9 94 -20 118 -56 118 -17 0 -61 -12 -98
-26 -37 -14 -75 -28 -84 -30 -13 -5 -18 8 -28 67 -6 40 -17 79 -23 86 -16 19
-50 16 -124 -12 -36 -14 -69 -25 -73 -25 -4 0 -13 22 -20 49 -15 58 -36 91
-59 90 -9 0 -44 -14 -77 -30z m-166 -82 c6 -8 29 -22 51 -32 l39 -18 58 29
c32 16 61 30 64 32 7 3 19 -30 39 -107 11 -42 12 -43 46 -38 18 3 36 1 39 -4
4 -5 17 -9 31 -9 37 0 89 -63 85 -105 -3 -38 13 -48 67 -39 30 5 41 2 56 -15
26 -29 52 -26 78 9 29 39 43 25 28 -29 -20 -74 11 -88 103 -47 56 25 156 50
165 42 2 -3 -1 -19 -7 -37 -19 -55 -14 -88 14 -95 21 -5 24 -10 19 -33 -8 -32
-30 -58 -63 -74 -20 -9 -26 -20 -27 -46 -1 -33 -24 -61 -49 -61 -6 0 -22 11
-35 25 -42 45 -64 35 -125 -60 -30 -47 -59 -85 -64 -85 -14 0 -59 64 -80 113
-25 57 -45 64 -91 32 -50 -34 -64 -32 -83 15 -17 43 -44 53 -67 25 -26 -31
-80 -3 -80 42 0 16 -9 27 -27 35 -16 7 -29 13 -31 13 -1 1 2 23 7 49 8 41 6
51 -10 67 -15 15 -28 18 -58 13 -21 -3 -47 -1 -59 5 -27 15 -37 59 -17 80 26
30 17 53 -45 116 l-60 61 15 59 c22 82 46 105 74 72z m-148 -187 l79 -80 -35
-46 c-19 -25 -35 -51 -35 -59 0 -7 21 -29 46 -50 l45 -37 -20 -22 c-30 -32
-26 -51 19 -83 22 -15 40 -34 40 -41 0 -7 -19 -33 -41 -57 -54 -59 -50 -87 15
-104 25 -6 47 -14 49 -18 3 -5 -2 -27 -10 -51 -8 -24 -13 -53 -11 -65 3 -23 9
-24 113 -15 38 3 40 1 67 -47 48 -89 108 -106 189 -54 57 36 180 59 205 38 13
-10 10 -17 -20 -48 -19 -20 -45 -58 -56 -85 -21 -46 -23 -48 -53 -42 -102 21
-105 20 -137 -14 -30 -32 -34 -33 -101 -31 -64 2 -71 0 -97 -26 -15 -16 -36
-41 -47 -57 l-20 -28 -52 18 c-49 17 -54 17 -87 2 l-35 -17 -47 75 c-52 83
-54 84 -142 56 -30 -10 -35 -8 -59 18 -36 41 -52 44 -106 20 -51 -23 -67 -20
-67 10 0 17 -31 44 -41 36 -2 -2 -16 -6 -31 -10 -46 -11 -36 29 21 84 33 32
52 60 56 82 6 33 7 33 63 33 76 0 126 28 130 73 3 28 7 32 33 32 81 0 133 53
111 114 -7 18 -12 49 -12 69 0 29 7 41 35 64 46 37 45 62 -5 106 -93 85 -141
101 -156 54 -5 -17 3 -30 42 -63 l49 -43 -21 -23 c-43 -46 -57 -88 -45 -128
19 -63 18 -63 -51 -57 -35 4 -68 3 -75 -1 -6 -4 -13 -30 -15 -57 l-3 -50 -69
-5 c-67 -5 -70 -6 -79 -35 -20 -63 -33 -67 -113 -29 -37 18 -63 24 -81 19
l-25 -6 21 35 c18 28 20 39 11 56 -12 23 -35 25 -70 5 -14 -8 -28 -14 -32 -15
-13 0 -8 54 7 80 24 42 18 60 -22 77 -21 8 -46 22 -55 31 -19 16 -24 67 -8 77
14 9 12 36 -4 54 -9 9 -18 50 -22 94 -8 91 -2 95 65 42 50 -40 46 -38 72 -25
16 9 19 22 19 73 0 75 18 107 59 107 22 0 78 -29 108 -54 2 -1 -6 -28 -17 -59
-11 -31 -20 -66 -20 -77 0 -28 37 -62 64 -58 15 2 31 -7 48 -26 27 -32 62 -30
73 5 8 24 20 24 37 1 20 -28 36 -34 58 -22 13 7 20 21 20 38 0 20 13 41 46 72
56 54 83 110 84 168 0 110 45 111 151 2z m1295 -533 c4 -3 -9 -24 -29 -46 -65
-72 -63 -121 5 -122 53 0 136 -14 145 -23 4 -3 -9 -23 -29 -44 -48 -51 -68
-82 -68 -108 0 -39 21 -46 94 -33 36 7 69 10 72 6 4 -3 -8 -25 -25 -49 -37
-50 -39 -71 -8 -112 42 -56 42 -56 -14 -53 -48 2 -53 0 -69 -28 -20 -37 -45
-43 -60 -16 -18 34 -48 45 -74 27 -21 -13 -24 -13 -39 5 -22 25 -57 25 -64 -1
-10 -38 -20 -20 -15 28 5 62 -14 82 -61 64 -38 -14 -40 -12 -27 22 15 40 12
66 -7 72 -39 13 -61 27 -72 48 -10 18 -8 29 13 66 35 61 33 82 -9 114 -19 15
-35 35 -35 44 -1 9 -7 35 -15 57 -19 53 -4 68 33 32 15 -15 37 -27 48 -27 10
0 53 21 94 46 72 44 78 45 142 42 37 -2 70 -7 74 -11z m-2370 -198 c59 -62
132 -84 184 -54 41 24 63 17 110 -30 48 -49 83 -58 100 -26 18 35 41 51 70 51
35 0 48 -16 20 -23 -28 -7 -62 -89 -64 -151 -1 -48 1 -51 32 -66 38 -19 52
-36 52 -67 0 -28 -2 -28 -49 -1 -33 19 -41 20 -55 9 -9 -7 -16 -21 -16 -31 0
-19 -27 -30 -78 -30 -49 0 -98 56 -107 124 -3 28 -11 56 -17 63 -14 17 -48 16
-72 -2 -32 -24 -65 -19 -84 15 -15 27 -22 30 -64 30 -55 0 -61 11 -18 36 16
10 32 24 35 32 9 24 -4 50 -28 58 -36 11 -44 22 -39 53 3 21 11 31 26 34 11 2
24 5 27 6 3 0 18 -13 35 -30z m1676 -320 c56 -15 74 -51 38 -76 -15 -11 -20
-23 -17 -39 4 -23 2 -24 -58 -24 -34 0 -84 -7 -111 -15 -64 -19 -67 -19 -54 5
6 12 8 29 5 40 -9 28 12 60 39 60 15 0 33 13 51 36 17 23 33 34 44 31 9 -3 37
-11 63 -18z m-502 -163 c0 -14 5 -28 10 -31 6 -3 10 -21 10 -40 0 -19 5 -46
10 -60 9 -24 14 -27 48 -22 65 9 165 35 242 64 l75 28 245 -3 c292 -3 313 -5
335 -39 26 -39 6 -45 -125 -39 -384 19 -424 19 -486 1 -60 -17 -153 -65 -172
-88 -11 -12 -45 -293 -57 -458 -3 -47 -1 -135 5 -196 22 -235 93 -370 241
-456 67 -40 180 -65 344 -77 180 -13 257 -37 365 -114 25 -18 78 -50 118 -71
40 -21 70 -40 68 -43 -3 -2 -35 -1 -72 3 -54 6 -89 18 -178 65 -61 31 -127 62
-146 68 -59 19 -169 31 -301 33 -115 1 -132 4 -203 32 -49 19 -96 47 -126 74
-55 49 -76 53 -91 19 -9 -19 -8 -29 4 -46 20 -29 107 -94 143 -107 164 -61
211 -89 263 -153 18 -23 31 -44 28 -46 -3 -3 -27 11 -54 30 -75 53 -179 102
-294 136 -57 17 -149 54 -204 81 -86 44 -105 50 -143 46 -52 -6 -73 -23 -107
-90 -14 -29 -48 -82 -74 -118 -39 -53 -61 -73 -108 -95 -53 -26 -71 -29 -203
-35 -80 -4 -165 -10 -190 -13 l-45 -7 45 40 c59 53 99 72 168 77 102 9 122 15
158 46 51 45 104 156 109 228 5 77 19 135 36 150 13 11 23 55 40 165 l22 151
-26 159 c-20 116 -27 195 -27 287 0 116 -3 137 -34 238 l-34 112 45 41 c25 23
54 45 65 49 23 9 63 -10 97 -46 15 -16 31 -24 41 -21 33 10 39 -136 15 -375
-26 -259 -16 -429 31 -550 22 -58 37 -74 62 -66 32 11 34 34 8 110 -52 150
-55 246 -20 591 16 162 13 297 -8 322 -6 7 -19 13 -30 13 -15 0 -17 3 -8 19
27 52 70 68 70 27z m-468 -28 c-2 -14 8 -70 22 -124 14 -54 23 -100 21 -102
-2 -2 -13 6 -25 18 -19 19 -24 20 -43 7 -20 -14 -25 -12 -63 23 -59 54 -123
74 -375 115 -123 21 -228 41 -233 45 -5 5 9 14 31 20 35 11 43 10 74 -9 40
-24 75 -27 86 -7 6 11 17 13 43 7 19 -4 62 -3 96 2 76 13 105 5 153 -38 47
-43 63 -44 99 -5 33 36 93 79 107 76 6 -2 9 -14 7 -28z m-277 -188 c19 -7 24
-27 44 -176 18 -131 24 -235 28 -464 5 -272 7 -297 24 -315 15 -16 23 -17 37
-9 16 11 17 36 14 320 -2 240 -7 340 -22 448 -11 77 -18 142 -15 144 11 12 58
-47 90 -113 52 -106 65 -193 64 -417 0 -245 -12 -415 -30 -453 -15 -31 -19
-33 -144 -63 -44 -10 -87 -22 -96 -26 -14 -6 -17 7 -23 101 -4 59 -12 149 -17
198 -5 50 -14 182 -19 295 -5 113 -18 275 -30 360 -27 209 -29 193 28 184 26
-4 56 -10 67 -14z m1231 -87 l29 -98 -3 -290 c-4 -314 0 -345 42 -345 14 0 27
4 30 9 3 5 8 147 11 317 l6 309 -29 98 -29 97 51 0 c28 0 61 -3 73 -6 l22 -6
-2 -372 c-1 -241 2 -406 10 -471 7 -55 15 -140 19 -189 l7 -88 -74 7 c-41 3
-112 18 -157 31 -189 57 -249 178 -259 523 -6 194 11 476 30 499 22 28 122 67
178 71 12 1 24 -24 45 -96z m-1002 -1129 c-31 -63 -52 -71 -284 -115 -281 -52
-311 -55 -388 -35 -35 9 -76 16 -90 16 -22 1 -24 3 -11 10 9 5 72 14 140 19
147 12 205 27 326 80 50 22 110 45 134 52 57 16 172 27 183 18 4 -4 0 -24 -10
-45z"/>
<path d="M5370 2890 l0 -1041 623 3 622 3 66 26 c149 58 243 139 304 262 36
73 64 192 64 272 1 63 -26 172 -59 242 -56 120 -214 246 -337 269 -40 8 -42
19 -6 29 82 20 209 132 256 226 30 59 57 171 57 234 0 68 -28 177 -65 251 -41
84 -125 168 -207 208 -108 53 -145 56 -755 56 l-563 0 0 -1040z m1006 600
c122 -60 146 -260 42 -357 -51 -48 -81 -53 -338 -53 l-240 0 0 215 0 215 247
0 c228 0 250 -2 289 -20z m60 -767 c167 -89 167 -337 1 -426 -40 -21 -52 -22
-317 -22 l-275 0 -3 225 c-1 123 0 231 3 238 4 11 56 13 277 10 258 -3 275 -4
314 -25z"/>
<path d="M8170 3737 c0 -151 -2 -167 -23 -207 -30 -57 -74 -80 -154 -80 l-63
0 0 -200 0 -200 104 0 105 0 3 -412 c4 -393 5 -416 26 -479 55 -166 174 -276
353 -325 94 -26 297 -24 403 5 44 11 81 23 83 25 3 2 -12 88 -33 191 l-37 187
-26 -6 c-14 -4 -56 -9 -92 -13 -58 -5 -74 -2 -121 19 -39 18 -62 37 -79 64
l-24 39 -3 353 -3 352 191 0 190 0 0 200 0 200 -190 0 -190 0 0 225 0 225
-210 0 -210 0 0 -163z"/>
<path d="M9691 3479 c-87 -11 -193 -44 -266 -82 -257 -137 -309 -447 -106
-628 73 -65 179 -116 392 -188 218 -73 278 -101 323 -151 47 -52 54 -96 26
-154 -30 -63 -86 -90 -178 -84 -126 7 -208 72 -233 185 -11 47 -15 54 -33 49
-12 -2 -124 -26 -251 -52 -126 -25 -234 -51 -240 -56 -15 -13 21 -135 58 -197
46 -77 146 -165 241 -212 409 -201 975 -73 1096 249 30 79 36 176 16 248 -49
169 -179 261 -521 365 -280 85 -361 132 -372 218 -7 48 12 82 60 111 60 37
195 22 250 -28 27 -24 57 -86 57 -117 0 -14 4 -25 9 -25 12 0 451 89 475 96
47 15 -23 186 -112 273 -147 144 -421 215 -691 180z"/>
<path d="M13076 3474 c-153 -28 -282 -99 -389 -214 -58 -63 -120 -166 -129
-214 -3 -16 27 -29 202 -92 113 -40 210 -73 216 -73 6 -1 16 17 23 39 62 208
405 211 451 4 12 -51 -5 -82 -49 -94 -20 -5 -157 -34 -306 -65 -319 -66 -381
-90 -476 -184 -80 -80 -119 -164 -126 -269 -10 -141 31 -248 133 -349 203
-204 576 -200 799 8 56 53 66 59 71 43 4 -11 19 -50 34 -89 l28 -70 174 -3
174 -2 -4 557 c-3 444 -6 570 -18 618 -58 242 -269 414 -558 454 -98 14 -151
13 -250 -5z m378 -926 c-10 -93 -40 -165 -93 -221 -65 -69 -109 -90 -206 -94
-69 -3 -85 -1 -120 19 -99 58 -97 192 4 252 18 10 114 36 213 57 99 21 183 41
186 44 17 17 22 -2 16 -57z"/>
<path d="M15515 3481 c-239 -39 -429 -173 -523 -369 -20 -42 -31 -77 -26 -82
16 -15 414 -151 424 -145 6 3 10 13 10 22 0 30 48 99 87 125 119 82 287 54
350 -57 27 -48 30 -106 6 -127 -11 -9 -133 -39 -293 -72 -306 -63 -371 -82
-440 -126 -69 -44 -147 -131 -178 -197 -35 -77 -43 -212 -17 -299 45 -155 164
-268 340 -320 95 -29 258 -24 360 9 92 31 190 91 238 148 19 21 36 39 39 39 3
0 20 -40 39 -90 l33 -90 173 0 173 0 0 543 c0 604 -2 626 -66 755 -71 145
-230 266 -411 312 -87 23 -243 33 -318 21z m343 -939 c-13 -175 -131 -301
-290 -310 -84 -5 -129 10 -169 55 -29 34 -31 40 -27 95 4 50 9 63 38 93 39 41
50 44 240 85 80 16 159 34 175 39 17 5 32 10 34 10 2 1 1 -30 -1 -67z"/>
<path d="M7280 2650 l0 -800 225 0 225 0 0 800 0 800 -225 0 -225 0 0 -800z"/>
<path d="M13677 1258 c-26 -21 -38 -63 -26 -98 30 -83 149 -58 149 31 0 63
-75 103 -123 67z"/>
<path d="M15542 1247 c-30 -32 -29 -87 1 -115 63 -59 154 5 125 88 -18 54 -87
68 -126 27z"/>
<path d="M11485 1241 c-75 -34 -105 -85 -105 -177 l0 -54 -45 0 -45 0 0 -55 0
-55 45 0 45 0 0 -215 0 -215 60 0 60 0 0 215 0 215 70 0 70 0 0 55 0 55 -70 0
-70 0 0 45 c0 64 27 90 86 81 49 -6 52 -2 68 70 6 29 4 33 -25 43 -46 16 -98
13 -144 -8z"/>
<path d="M7910 860 l0 -390 60 0 60 0 0 170 c0 133 4 178 16 210 44 110 193
120 244 16 18 -38 20 -61 20 -219 l0 -177 61 0 61 0 -4 203 c-6 253 -20 298
-113 352 -80 47 -187 33 -257 -33 l-28 -26 0 142 0 142 -60 0 -60 0 0 -390z"/>
<path d="M9070 860 l0 -390 60 0 60 0 0 173 c0 159 2 176 23 217 38 74 118
100 184 60 63 -38 68 -54 71 -262 l4 -188 60 0 60 0 -4 204 c-3 203 -3 203
-33 262 -41 79 -97 115 -182 115 -66 1 -110 -16 -155 -59 l-28 -26 0 142 0
142 -60 0 -60 0 0 -390z"/>
<path d="M10280 860 l0 -390 60 0 60 0 -2 388 -3 387 -57 3 -58 3 0 -391z"/>
<path d="M5451 853 c-74 -197 -136 -364 -139 -370 -3 -10 14 -13 66 -13 l70 0
33 95 33 95 146 0 146 0 33 -95 33 -95 69 0 c38 0 69 1 69 3 0 1 -62 166 -138
367 l-138 365 -75 3 -74 3 -134 -358z m265 54 l52 -142 -105 -3 c-58 -1 -107
-1 -109 1 -2 2 20 69 48 150 28 81 54 145 57 141 3 -3 29 -69 57 -147z"/>
<path d="M6330 840 l0 -370 60 0 60 0 0 129 0 129 133 4 c112 4 139 8 181 28
86 41 131 127 124 235 -5 87 -44 149 -117 187 -53 28 -54 28 -247 28 l-194 0
0 -370z m391 224 c56 -57 49 -166 -15 -205 -26 -16 -50 -19 -143 -19 l-113 0
0 131 0 131 120 -4 c119 -3 120 -3 151 -34z"/>
<path d="M12980 841 l0 -371 203 0 c111 0 219 5 240 11 47 13 106 63 123 106
20 47 17 127 -6 173 -20 38 -58 73 -100 88 -22 8 -22 9 13 31 53 33 78 80 78
146 0 66 -19 104 -74 149 l-39 31 -219 3 -219 3 0 -370z m369 248 c53 -19 75
-83 47 -138 -22 -41 -55 -51 -176 -51 l-110 0 0 100 0 100 104 0 c56 0 117 -5
135 -11z m26 -303 c41 -17 55 -42 55 -96 0 -33 -6 -48 -29 -71 l-29 -29 -131
0 -131 0 0 105 0 105 115 0 c77 0 127 -5 150 -14z"/>
<path d="M7570 1135 c0 -62 -22 -95 -65 -95 -24 0 -25 -3 -25 -55 l0 -55 39 0
39 0 4 -182 c3 -159 6 -187 22 -215 29 -47 83 -73 152 -73 80 0 87 6 79 66
l-7 49 -38 -3 c-31 -3 -44 1 -64 22 -26 25 -26 27 -26 181 l0 155 65 0 65 0 0
55 0 55 -65 0 -65 0 0 75 0 75 -55 0 -55 0 0 -55z"/>
<path d="M13950 1132 c0 -66 -18 -92 -63 -92 -26 0 -27 -2 -27 -55 l0 -55 44
0 45 0 3 -194 c3 -192 3 -195 28 -221 39 -42 73 -55 145 -55 75 0 81 6 71 73
-6 42 -7 43 -41 39 -22 -3 -45 2 -60 12 -25 16 -25 17 -25 181 l0 165 65 0 65
0 0 55 0 55 -65 0 -65 0 0 75 0 75 -60 0 -60 0 0 -58z"/>
<path d="M7143 1049 c-23 -4 -55 -15 -71 -23 -55 -28 -120 -120 -108 -151 2
-7 22 -16 43 -19 21 -4 45 -9 53 -11 10 -3 21 9 32 35 29 70 126 90 176 37 24
-25 36 -67 24 -84 -4 -7 -61 -23 -126 -37 -131 -28 -170 -46 -204 -97 -20 -28
-23 -43 -20 -87 8 -94 64 -145 166 -150 76 -4 124 12 163 52 32 34 37 33 45
-9 6 -34 7 -35 55 -35 l49 0 0 185 c0 101 -5 206 -10 233 -12 54 -56 114 -102
138 -41 21 -115 31 -165 23z m154 -349 c-13 -101 -112 -159 -197 -115 -24 12
-30 22 -30 48 0 53 18 67 111 87 125 27 123 27 116 -20z"/>
<path d="M8689 1049 c-131 -19 -201 -115 -152 -209 23 -45 66 -73 161 -104 85
-29 140 -58 148 -81 20 -52 -44 -103 -114 -90 -39 7 -102 63 -102 90 0 10 -5
15 -13 12 -7 -2 -38 -10 -69 -16 l-56 -12 8 -31 c14 -48 55 -94 107 -119 40
-20 63 -24 143 -24 86 0 100 3 142 27 32 19 52 41 67 71 25 51 26 76 7 122
-19 45 -70 76 -187 114 -53 18 -103 40 -111 49 -28 32 -29 52 -3 78 42 42 135
28 157 -23 7 -16 13 -29 13 -30 5 -9 118 22 122 33 10 27 -43 96 -96 124 -34
17 -118 27 -172 19z"/>
<path d="M9883 1049 c-58 -11 -93 -31 -136 -78 -38 -42 -56 -87 -41 -100 9 -9
105 -34 108 -29 28 65 44 84 83 98 38 13 46 12 78 -3 38 -18 70 -73 59 -101
-3 -9 -30 -20 -62 -26 -32 -7 -85 -18 -119 -25 -34 -7 -76 -21 -95 -32 -102
-59 -105 -193 -6 -266 61 -46 204 -30 258 28 31 33 37 32 44 -10 7 -34 8 -35
55 -35 l48 0 -5 218 c-5 228 -8 249 -56 300 -44 49 -133 75 -213 61z m152
-346 c-16 -89 -74 -138 -154 -130 -52 6 -74 26 -74 67 0 45 23 62 115 81 124
25 121 26 113 -18z"/>
<path d="M10703 1049 c-75 -14 -132 -56 -168 -127 -22 -44 -15 -58 33 -66 22
-3 46 -8 54 -11 8 -3 19 10 30 35 29 70 126 91 176 37 24 -26 36 -67 24 -85
-5 -7 -61 -23 -125 -36 -130 -27 -171 -46 -205 -97 -20 -28 -23 -43 -20 -87 8
-94 64 -145 166 -150 75 -4 120 10 165 52 15 14 30 26 32 26 2 0 7 -16 11 -35
6 -34 7 -35 55 -35 l49 0 0 193 c0 222 -10 274 -62 324 -18 17 -43 36 -56 43
-35 18 -112 27 -159 19z m154 -349 c-7 -51 -29 -85 -70 -110 -49 -30 -125 -23
-149 14 -15 21 -8 66 12 84 11 9 57 24 103 34 117 23 110 24 104 -22z"/>
<path d="M11900 1048 c-101 -15 -192 -97 -220 -196 -29 -107 1 -241 71 -310
62 -63 100 -77 204 -77 107 0 150 18 214 91 100 114 93 313 -15 418 -22 21
-51 44 -65 52 -41 21 -128 31 -189 22z m147 -136 c87 -62 95 -213 15 -293 -66
-65 -161 -61 -225 10 -75 83 -56 234 35 292 44 27 131 23 175 -9z"/>
<path d="M14490 1049 c-65 -10 -94 -23 -140 -65 -52 -47 -76 -95 -89 -170 -22
-139 29 -258 138 -322 41 -24 56 -27 136 -27 73 0 98 4 131 22 44 23 100 81
113 117 24 63 25 61 -32 79 -71 22 -74 22 -81 -13 -8 -41 -44 -76 -94 -91
-125 -37 -231 115 -178 254 24 65 65 99 123 104 73 6 130 -34 156 -110 1 -5
29 -1 60 9 50 15 56 20 51 38 -39 126 -157 196 -294 175z"/>
<path d="M15099 1049 c-137 -20 -231 -135 -233 -284 -2 -175 98 -292 259 -303
131 -8 227 45 281 155 37 76 40 192 6 268 -56 122 -174 184 -313 164z m131
-131 c57 -39 74 -71 78 -147 7 -111 -42 -180 -140 -196 -55 -10 -125 27 -156
80 -30 53 -28 168 4 212 35 48 82 73 134 73 32 0 57 -7 80 -22z"/>
<path d="M16042 1048 c-46 -8 -90 -34 -121 -74 l-20 -25 -8 43 c-8 43 -9 43
-56 46 l-47 3 0 -285 0 -286 60 0 60 0 0 183 c0 163 2 185 20 214 55 90 178
96 230 10 18 -29 20 -51 20 -219 l0 -188 60 0 60 0 0 199 c0 153 -4 208 -15
242 -15 43 -63 101 -97 120 -31 17 -102 25 -146 17z"/>
<path d="M12525 1035 c-16 -9 -40 -27 -52 -42 l-21 -26 -7 36 c-7 37 -8 37
-56 37 l-49 0 0 -285 0 -285 60 0 60 0 0 181 c0 207 7 236 68 265 28 13 44 15
78 7 42 -10 42 -9 48 20 3 16 6 47 6 68 l0 39 -52 0 c-29 0 -66 -7 -83 -15z"/>
<path d="M13660 755 l0 -285 60 0 60 0 0 285 0 285 -60 0 -60 0 0 -285z"/>
<path d="M15540 755 l0 -285 60 0 60 0 0 285 0 285 -60 0 -60 0 0 -285z"/>
</g>
</svg>
